<svg xmlns="http://www.w3.org/2000/svg" xmlns:xlink="http://www.w3.org/1999/xlink" width="500" zoomAndPan="magnify" viewBox="0 0 375 374.999991" height="500" preserveAspectRatio="xMidYMid meet" version="1.0"><defs><g/><clipPath id="2728fc616b"><path d="M 66.941406 0 L 307.691406 0 L 307.691406 201.75 L 66.941406 201.75 Z M 66.941406 0 " clip-rule="nonzero"/></clipPath></defs><rect x="-37.5" width="450" fill="#ffffff" y="-37.499999" height="449.999989" fill-opacity="1"/><rect x="-37.5" width="450" fill="#ffffff" y="-37.499999" height="449.999989" fill-opacity="1"/><rect x="-37.5" width="450" fill="#8c1f1e" y="-37.499999" height="449.999989" fill-opacity="1"/><g clip-path="url(#2728fc616b)"><path fill="#ffffff" d="M 90.277344 169.382812 C 154.972656 160.699219 219.671875 161.453125 284.367188 169.386719 C 285.027344 169.328125 285.519531 169.105469 285.8125 168.796875 C 285.929688 168.675781 286.003906 168.542969 286.023438 168.425781 C 286.046875 168.320312 286.027344 168.203125 285.96875 168.089844 C 285.710938 167.574219 284.886719 167.089844 283.3125 166.871094 C 267.21875 164.585938 251.726562 162.992188 235.96875 161.964844 C 220.296875 160.941406 204.378906 160.476562 187.34375 160.449219 C 170.3125 160.476562 154.390625 160.941406 138.714844 161.964844 C 122.960938 162.992188 107.472656 164.585938 91.375 166.871094 C 89.800781 167.089844 88.976562 167.574219 88.71875 168.089844 C 88.660156 168.203125 88.644531 168.320312 88.660156 168.425781 C 88.6875 168.542969 88.757812 168.675781 88.878906 168.796875 C 89.160156 169.097656 89.640625 169.316406 90.277344 169.382812 Z M 185.015625 0.164062 L 189.671875 0.164062 L 189.671875 9.570312 L 198.660156 9.570312 L 198.660156 14.238281 L 189.671875 14.238281 L 189.671875 28.335938 C 191.546875 29.214844 192.847656 31.121094 192.847656 33.332031 C 192.847656 35.054688 192.066406 36.585938 190.835938 37.597656 C 189.765625 37.128906 188.585938 36.867188 187.34375 36.867188 C 186.101562 36.867188 184.921875 37.128906 183.855469 37.597656 C 182.625 36.585938 181.839844 35.054688 181.839844 33.332031 C 181.839844 31.121094 183.140625 29.214844 185.015625 28.335938 L 185.015625 14.238281 L 176.03125 14.238281 L 176.03125 9.570312 L 185.015625 9.570312 Z M 165.585938 42.457031 C 168.152344 42.457031 170.230469 44.539062 170.230469 47.113281 C 170.230469 47.800781 170.082031 48.460938 169.808594 49.050781 C 170.882812 49.34375 171.933594 49.640625 172.964844 49.945312 C 174.851562 48.6875 176.742188 47.679688 178.640625 46.921875 L 178.640625 46.863281 C 178.640625 42.042969 182.535156 38.136719 187.34375 38.136719 C 192.152344 38.136719 196.050781 42.042969 196.050781 46.863281 L 196.050781 46.902344 C 197.953125 47.664062 199.84375 48.675781 201.738281 49.941406 C 202.761719 49.640625 203.8125 49.339844 204.878906 49.050781 C 204.609375 48.460938 204.457031 47.800781 204.457031 47.113281 C 204.457031 44.539062 206.535156 42.457031 209.101562 42.457031 C 211.621094 42.457031 213.667969 44.460938 213.746094 46.960938 C 215.34375 46.644531 216.960938 46.359375 218.589844 46.117188 C 218.542969 45.859375 218.519531 45.59375 218.519531 45.320312 C 218.519531 42.746094 220.601562 40.664062 223.167969 40.664062 C 225.699219 40.664062 227.761719 42.699219 227.8125 45.230469 C 230.058594 45.144531 232.296875 45.167969 234.5 45.324219 C 235.199219 43.636719 236.855469 42.453125 238.792969 42.453125 C 241.246094 42.453125 243.257812 44.359375 243.425781 46.78125 C 245.742188 47.40625 247.976562 48.242188 250.09375 49.3125 C 250.707031 49.070312 251.375 48.941406 252.070312 48.941406 C 255.070312 48.941406 257.5 51.378906 257.5 54.386719 C 257.5 54.445312 257.5 54.511719 257.496094 54.574219 C 258.226562 55.285156 258.9375 56.042969 259.609375 56.851562 C 260.804688 56.722656 261.980469 56.625 263.148438 56.5625 L 263.148438 56.496094 C 263.148438 54.164062 265.03125 52.28125 267.355469 52.28125 C 269.683594 52.28125 271.566406 54.164062 271.566406 56.496094 C 271.566406 56.582031 271.5625 56.660156 271.558594 56.742188 C 273.730469 56.957031 275.835938 57.3125 277.855469 57.796875 C 278.578125 56.503906 279.949219 55.636719 281.53125 55.636719 C 283.855469 55.636719 285.738281 57.523438 285.738281 59.851562 C 285.738281 60.085938 285.71875 60.3125 285.683594 60.535156 C 287.554688 61.425781 289.3125 62.457031 290.953125 63.628906 C 291.59375 63.238281 292.335938 63.015625 293.140625 63.015625 C 295.464844 63.015625 297.347656 64.90625 297.347656 67.230469 C 297.347656 67.914062 297.1875 68.558594 296.902344 69.128906 C 298.308594 70.8125 299.554688 72.660156 300.609375 74.660156 C 300.707031 74.652344 300.804688 74.648438 300.90625 74.648438 C 303.574219 74.648438 305.738281 76.816406 305.738281 79.492188 C 305.738281 81.082031 304.972656 82.5 303.785156 83.382812 C 304.179688 85.121094 304.464844 86.941406 304.632812 88.835938 C 306.453125 89.53125 307.746094 91.296875 307.746094 93.363281 C 307.746094 95.445312 306.433594 97.226562 304.589844 97.90625 C 304.542969 98.390625 304.496094 98.878906 304.4375 99.367188 C 304.332031 100.289062 304.140625 101.398438 303.859375 102.644531 C 305.253906 103.492188 306.183594 105.03125 306.183594 106.785156 C 306.183594 109.457031 304.019531 111.625 301.351562 111.625 C 301.207031 111.625 301.066406 111.621094 300.925781 111.605469 C 300.3125 113.03125 299.617188 114.480469 298.832031 115.90625 C 300.167969 116.769531 301.050781 118.269531 301.050781 119.980469 C 301.050781 122.65625 298.886719 124.824219 296.21875 124.824219 C 295.082031 124.824219 294.039062 124.433594 293.210938 123.773438 C 291.703125 125.371094 290.023438 126.808594 288.164062 127.992188 C 289.535156 126.222656 290.816406 124.320312 291.996094 122.34375 C 291.609375 121.644531 291.386719 120.835938 291.386719 119.980469 C 291.386719 117.492188 293.261719 115.441406 295.671875 115.167969 C 296.429688 113.441406 297.105469 111.695312 297.695312 109.949219 C 296.964844 109.101562 296.519531 107.992188 296.519531 106.785156 C 296.519531 104.671875 297.867188 102.878906 299.742188 102.21875 C 299.957031 101.089844 300.125 99.976562 300.253906 98.890625 C 300.308594 98.425781 300.355469 97.960938 300.394531 97.492188 C 299.007812 96.640625 298.082031 95.109375 298.082031 93.363281 C 298.082031 91.628906 298.992188 90.109375 300.355469 89.253906 C 300.179688 87.511719 299.894531 85.792969 299.492188 84.125 C 297.511719 83.515625 296.074219 81.675781 296.074219 79.492188 C 296.074219 78.523438 296.355469 77.621094 296.847656 76.867188 C 295.867188 74.9375 294.679688 73.117188 293.28125 71.449219 L 293.140625 71.453125 C 290.828125 71.453125 288.957031 69.589844 288.933594 67.28125 C 287.195312 65.953125 285.25 64.789062 283.085938 63.820312 C 291.507812 70.058594 295.523438 80.035156 295.429688 90.375 C 295.3125 102.539062 288.957031 123.082031 273.507812 134.28125 C 286.09375 119.671875 291.285156 103.410156 291.226562 90.386719 C 291.148438 72.597656 279.753906 62.378906 262.628906 61.21875 C 263.144531 62.125 263.613281 63.054688 264.046875 64.011719 C 266.117188 65.035156 267.546875 67.179688 267.546875 69.652344 C 267.546875 70.800781 267.242188 71.871094 266.707031 72.796875 C 267.203125 75.566406 267.441406 78.476562 267.429688 81.492188 C 268.734375 82.644531 269.554688 84.328125 269.554688 86.203125 C 269.554688 88.539062 268.28125 90.578125 266.394531 91.664062 C 265.902344 94.230469 265.234375 96.949219 264.382812 99.726562 C 265.246094 100.800781 265.757812 102.167969 265.757812 103.65625 C 265.757812 106.785156 263.476562 109.378906 260.488281 109.859375 C 259.625 111.699219 258.675781 113.515625 257.644531 115.277344 C 258.261719 116.25 258.617188 117.402344 258.617188 118.640625 C 258.617188 122.109375 255.8125 124.921875 252.347656 124.921875 C 251.773438 124.921875 251.21875 124.84375 250.6875 124.699219 C 249.875 125.566406 249.027344 126.398438 248.148438 127.179688 C 248.714844 126.253906 249.265625 125.324219 249.804688 124.382812 C 247.609375 123.40625 246.078125 121.203125 246.078125 118.640625 C 246.078125 115.167969 248.882812 112.359375 252.347656 112.359375 C 253.484375 112.359375 254.550781 112.660156 255.46875 113.1875 C 256.023438 111.941406 256.546875 110.691406 257.046875 109.441406 C 254.796875 108.484375 253.222656 106.253906 253.222656 103.65625 C 253.222656 100.183594 256.027344 97.375 259.492188 97.375 C 260 97.375 260.5 97.429688 260.972656 97.546875 C 261.425781 95.804688 261.8125 94.074219 262.132812 92.382812 C 259.21875 91.839844 257.015625 89.28125 257.015625 86.203125 C 257.015625 82.765625 259.777344 79.96875 263.203125 79.921875 C 263.160156 78.472656 263.0625 77.066406 262.898438 75.71875 C 262.382812 75.859375 261.839844 75.933594 261.277344 75.933594 C 257.8125 75.933594 255.007812 73.121094 255.007812 69.652344 C 255.007812 66.898438 256.773438 64.558594 259.234375 63.710938 C 258.191406 61.808594 256.949219 60.105469 255.523438 58.589844 C 254.582031 59.363281 253.378906 59.828125 252.070312 59.828125 C 249.066406 59.828125 246.636719 57.390625 246.636719 54.386719 C 246.636719 53.746094 246.746094 53.144531 246.945312 52.574219 C 245.296875 51.84375 243.539062 51.238281 241.679688 50.757812 C 240.886719 51.386719 239.882812 51.765625 238.792969 51.765625 C 237.140625 51.765625 235.695312 50.902344 234.871094 49.605469 C 231.808594 49.324219 228.542969 49.3125 225.09375 49.570312 C 245.710938 52.789062 254.664062 67.976562 251.585938 88.394531 C 249.660156 101.167969 241.960938 119.914062 226.628906 131.128906 C 238.425781 115.820312 245.472656 100.65625 247.417969 87.765625 C 248.742188 78.988281 247.945312 69.378906 241.898438 62.441406 C 230.785156 63.707031 214.109375 65.84375 204.539062 56.414062 C 215.667969 60.703125 227.53125 60.023438 237.773438 58.746094 C 228.054688 51.933594 213.777344 52.492188 202.679688 54.40625 C 199.703125 65.738281 197.445312 79.234375 195.890625 94.472656 C 194.230469 110.804688 193.382812 129.097656 193.335938 148.859375 C 189.671875 131.1875 190.09375 110.230469 191.707031 94.0625 C 192.832031 82.832031 195.210938 67.222656 198.738281 53.023438 C 197.484375 52.226562 196.238281 51.566406 194.992188 51.035156 C 193.511719 53.742188 190.644531 55.585938 187.34375 55.585938 C 184.046875 55.585938 181.179688 53.746094 179.703125 51.042969 C 178.457031 51.578125 177.207031 52.238281 175.953125 53.027344 C 179.480469 67.222656 181.859375 82.832031 182.980469 94.0625 C 184.59375 110.230469 185.015625 131.1875 181.351562 148.859375 C 181.304688 129.097656 180.457031 110.804688 178.796875 94.472656 C 177.246094 79.234375 174.988281 65.738281 172.011719 54.40625 C 160.910156 52.492188 146.636719 51.933594 136.917969 58.746094 C 147.160156 60.023438 159.019531 60.703125 170.148438 56.414062 C 160.578125 65.84375 143.902344 63.707031 132.789062 62.441406 C 126.746094 69.378906 125.945312 78.988281 127.269531 87.765625 C 129.21875 100.65625 136.265625 115.820312 148.0625 131.128906 C 132.730469 119.914062 125.027344 101.167969 123.101562 88.394531 C 120.027344 67.976562 128.976562 52.789062 149.59375 49.570312 C 146.148438 49.3125 142.882812 49.324219 139.820312 49.605469 C 138.996094 50.902344 137.546875 51.765625 135.894531 51.765625 C 134.808594 51.765625 133.804688 51.386719 133.007812 50.757812 C 131.148438 51.238281 129.390625 51.84375 127.746094 52.574219 C 127.941406 53.144531 128.054688 53.746094 128.054688 54.386719 C 128.054688 57.390625 125.621094 59.828125 122.621094 59.828125 C 121.308594 59.828125 120.101562 59.363281 119.164062 58.589844 C 117.742188 60.105469 116.5 61.808594 115.453125 63.710938 C 117.914062 64.558594 119.683594 66.898438 119.683594 69.652344 C 119.683594 73.121094 116.875 75.933594 113.414062 75.933594 C 112.851562 75.933594 112.304688 75.859375 111.789062 75.71875 C 111.628906 77.066406 111.527344 78.472656 111.488281 79.921875 C 114.910156 79.96875 117.671875 82.765625 117.671875 86.203125 C 117.671875 89.28125 115.46875 91.839844 112.558594 92.382812 C 112.878906 94.074219 113.261719 95.804688 113.71875 97.546875 C 114.191406 97.429688 114.6875 97.375 115.199219 97.375 C 118.660156 97.375 121.46875 100.183594 121.46875 103.65625 C 121.46875 106.253906 119.890625 108.484375 117.644531 109.441406 C 118.140625 110.691406 118.667969 111.941406 119.21875 113.1875 C 120.140625 112.660156 121.203125 112.359375 122.339844 112.359375 C 125.804688 112.359375 128.609375 115.167969 128.609375 118.640625 C 128.609375 121.203125 127.082031 123.40625 124.886719 124.382812 C 125.425781 125.324219 125.976562 126.253906 126.542969 127.179688 C 125.660156 126.398438 124.816406 125.566406 124 124.699219 C 123.472656 124.84375 122.914062 124.921875 122.339844 124.921875 C 118.875 124.921875 116.070312 122.109375 116.070312 118.640625 C 116.070312 117.402344 116.425781 116.25 117.042969 115.277344 C 116.011719 113.515625 115.0625 111.699219 114.199219 109.859375 C 111.210938 109.378906 108.925781 106.785156 108.925781 103.65625 C 108.925781 102.167969 109.445312 100.800781 110.304688 99.726562 C 109.453125 96.949219 108.785156 94.230469 108.292969 91.664062 C 106.40625 90.578125 105.136719 88.539062 105.136719 86.203125 C 105.136719 84.328125 105.957031 82.644531 107.261719 81.492188 C 107.25 78.476562 107.488281 75.566406 107.984375 72.796875 C 107.449219 71.871094 107.144531 70.800781 107.144531 69.652344 C 107.144531 67.179688 108.570312 65.035156 110.644531 64.011719 C 111.074219 63.054688 111.542969 62.125 112.058594 61.21875 C 94.933594 62.378906 83.542969 72.597656 83.464844 90.386719 C 83.40625 103.410156 88.597656 119.671875 101.183594 134.28125 C 85.734375 123.082031 79.375 102.539062 79.261719 90.375 C 79.164062 80.035156 83.179688 70.058594 91.601562 63.820312 C 89.4375 64.789062 87.496094 65.953125 85.757812 67.28125 C 85.734375 69.589844 83.859375 71.453125 81.550781 71.453125 L 81.40625 71.449219 C 80.007812 73.117188 78.824219 74.9375 77.84375 76.867188 C 78.332031 77.621094 78.613281 78.523438 78.613281 79.492188 C 78.613281 81.675781 77.175781 83.515625 75.195312 84.125 C 74.796875 85.792969 74.511719 87.511719 74.332031 89.253906 C 75.699219 90.109375 76.605469 91.628906 76.605469 93.363281 C 76.605469 95.109375 75.679688 96.640625 74.296875 97.492188 C 74.335938 97.960938 74.382812 98.425781 74.433594 98.890625 C 74.5625 99.976562 74.730469 101.089844 74.945312 102.21875 C 76.824219 102.878906 78.167969 104.671875 78.167969 106.785156 C 78.167969 107.992188 77.726562 109.101562 76.996094 109.953125 C 77.585938 111.695312 78.261719 113.441406 79.015625 115.167969 C 81.429688 115.441406 83.304688 117.492188 83.304688 119.980469 C 83.304688 120.835938 83.082031 121.644531 82.691406 122.34375 C 83.871094 124.320312 85.152344 126.222656 86.527344 127.992188 C 84.664062 126.808594 82.988281 125.371094 81.476562 123.773438 C 80.652344 124.433594 79.605469 124.824219 78.46875 124.824219 C 75.804688 124.824219 73.636719 122.65625 73.636719 119.980469 C 73.636719 118.269531 74.523438 116.769531 75.855469 115.90625 C 75.070312 114.480469 74.375 113.03125 73.765625 111.605469 C 73.621094 111.621094 73.484375 111.625 73.335938 111.625 C 70.667969 111.625 68.503906 109.457031 68.503906 106.785156 C 68.503906 105.03125 69.433594 103.492188 70.828125 102.644531 C 70.546875 101.398438 70.355469 100.289062 70.25 99.367188 C 70.195312 98.878906 70.144531 98.390625 70.101562 97.90625 C 68.257812 97.226562 66.941406 95.445312 66.941406 93.363281 C 66.941406 91.296875 68.234375 89.53125 70.054688 88.835938 C 70.222656 86.941406 70.511719 85.121094 70.902344 83.382812 C 69.714844 82.5 68.949219 81.082031 68.949219 79.492188 C 68.949219 76.816406 71.113281 74.648438 73.785156 74.648438 C 73.882812 74.648438 73.980469 74.652344 74.078125 74.660156 C 75.136719 72.660156 76.378906 70.8125 77.789062 69.128906 C 77.503906 68.558594 77.34375 67.914062 77.34375 67.230469 C 77.34375 64.90625 79.226562 63.015625 81.550781 63.015625 C 82.347656 63.015625 83.097656 63.238281 83.734375 63.628906 C 85.375 62.457031 87.136719 61.425781 89.003906 60.535156 C 88.96875 60.3125 88.953125 60.085938 88.953125 59.851562 C 88.953125 57.523438 90.832031 55.636719 93.160156 55.636719 C 94.738281 55.636719 96.113281 56.503906 96.832031 57.796875 C 98.855469 57.3125 100.957031 56.957031 103.132812 56.742188 C 103.128906 56.660156 103.125 56.582031 103.125 56.496094 C 103.125 54.164062 105.007812 52.28125 107.332031 52.28125 C 109.65625 52.28125 111.539062 54.164062 111.539062 56.496094 L 111.539062 56.5625 C 112.707031 56.625 113.886719 56.722656 115.082031 56.851562 C 115.753906 56.042969 116.457031 55.285156 117.191406 54.574219 C 117.191406 54.511719 117.1875 54.445312 117.1875 54.386719 C 117.1875 51.378906 119.617188 48.941406 122.621094 48.941406 C 123.316406 48.941406 123.984375 49.070312 124.59375 49.3125 C 126.710938 48.242188 128.945312 47.40625 131.261719 46.78125 C 131.429688 44.359375 133.441406 42.453125 135.894531 42.453125 C 137.832031 42.453125 139.488281 43.636719 140.191406 45.324219 C 142.394531 45.167969 144.628906 45.144531 146.875 45.230469 C 146.925781 42.699219 148.984375 40.664062 151.519531 40.664062 C 154.089844 40.664062 156.167969 42.746094 156.167969 45.320312 C 156.167969 45.59375 156.144531 45.859375 156.101562 46.117188 C 157.726562 46.359375 159.34375 46.644531 160.941406 46.960938 C 161.019531 44.460938 163.070312 42.457031 165.585938 42.457031 Z M 187.34375 141.695312 C 188.894531 141.695312 190.15625 142.957031 190.15625 144.511719 C 190.15625 146.066406 188.894531 147.328125 187.34375 147.328125 C 185.792969 147.328125 184.535156 146.066406 184.535156 144.511719 C 184.535156 142.957031 185.792969 141.695312 187.34375 141.695312 Z M 187.34375 133.242188 C 188.894531 133.242188 190.15625 134.503906 190.15625 136.058594 C 190.15625 137.613281 188.894531 138.875 187.34375 138.875 C 185.792969 138.875 184.535156 137.613281 184.535156 136.058594 C 184.535156 134.503906 185.792969 133.242188 187.34375 133.242188 Z M 187.34375 124.785156 C 188.894531 124.785156 190.15625 126.046875 190.15625 127.601562 C 190.15625 129.15625 188.894531 130.417969 187.34375 130.417969 C 185.792969 130.417969 184.535156 129.15625 184.535156 127.601562 C 184.535156 126.046875 185.792969 124.785156 187.34375 124.785156 Z M 187.34375 116.332031 C 188.894531 116.332031 190.15625 117.589844 190.15625 119.148438 C 190.15625 120.703125 188.894531 121.960938 187.34375 121.960938 C 185.792969 121.960938 184.535156 120.703125 184.535156 119.148438 C 184.535156 117.589844 185.792969 116.332031 187.34375 116.332031 Z M 187.34375 107.875 C 188.894531 107.875 190.15625 109.140625 190.15625 110.695312 C 190.15625 112.25 188.894531 113.507812 187.34375 113.507812 C 185.792969 113.507812 184.535156 112.25 184.535156 110.695312 C 184.535156 109.140625 185.792969 107.875 187.34375 107.875 Z M 187.34375 99.425781 C 188.894531 99.425781 190.15625 100.683594 190.15625 102.238281 C 190.15625 103.792969 188.894531 105.058594 187.34375 105.058594 C 185.792969 105.058594 184.535156 103.792969 184.535156 102.238281 C 184.535156 100.683594 185.792969 99.425781 187.34375 99.425781 Z M 187.34375 88.613281 C 189.265625 88.613281 190.820312 90.171875 190.820312 92.09375 C 190.820312 94.015625 189.265625 95.578125 187.34375 95.578125 C 185.425781 95.578125 183.871094 94.015625 183.871094 92.09375 C 183.871094 90.171875 185.425781 88.613281 187.34375 88.613281 Z M 187.34375 75.175781 C 189.910156 75.175781 191.992188 77.261719 191.992188 79.832031 C 191.992188 82.40625 189.910156 84.488281 187.34375 84.488281 C 184.777344 84.488281 182.699219 82.40625 182.699219 79.832031 C 182.699219 77.261719 184.777344 75.175781 187.34375 75.175781 Z M 187.34375 58.875 C 190.976562 58.875 193.914062 61.824219 193.914062 65.460938 C 193.914062 69.101562 190.976562 72.050781 187.34375 72.050781 C 183.714844 72.050781 180.773438 69.101562 180.773438 65.460938 C 180.773438 61.824219 183.714844 58.875 187.34375 58.875 Z M 286.191406 163.871094 C 287.332031 159.894531 287.734375 155.867188 288.558594 151.960938 C 289.226562 148.796875 291.5 152.652344 293.820312 153.652344 C 301.519531 156.96875 307.328125 144.4375 298.214844 139.136719 C 296.867188 138.351562 295.472656 137.902344 294.085938 137.738281 C 294.101562 133.550781 290.941406 129.960938 286.699219 129.527344 C 282.460938 129.09375 278.640625 131.980469 277.820312 136.082031 C 276.429688 135.964844 274.976562 136.128906 273.496094 136.625 C 263.503906 139.984375 266.683594 153.429688 274.894531 151.730469 C 277.367188 151.21875 279.894531 147.933594 280.382812 151.128906 C 281.035156 155.347656 276.132812 158.664062 272.351562 159.253906 C 270.65625 159.519531 269.054688 159.421875 267.390625 159.070312 C 267.152344 159.011719 266.925781 158.953125 266.707031 158.894531 C 267.207031 157.96875 267.535156 156.929688 267.648438 155.820312 C 268.105469 151.296875 264.816406 147.257812 260.304688 146.796875 C 256.40625 146.402344 252.867188 148.800781 251.683594 152.378906 C 251.5 152.390625 251.320312 152.410156 251.140625 152.433594 C 250.851562 150.101562 250.328125 147.402344 250.703125 145.839844 C 251.394531 146.191406 252.160156 146.414062 252.972656 146.472656 C 256.296875 146.71875 259.183594 144.222656 259.429688 140.894531 C 259.640625 138.023438 257.8125 135.472656 255.171875 134.671875 C 254.894531 131.800781 252.585938 129.464844 249.621094 129.246094 C 246.652344 129.023438 244.03125 130.996094 243.335938 133.792969 C 240.601562 134.195312 238.421875 136.449219 238.207031 139.320312 C 237.960938 142.648438 240.457031 145.542969 243.773438 145.789062 C 244.589844 145.851562 245.382812 145.746094 246.113281 145.5 C 246.253906 147.074219 245.367188 149.617188 244.742188 151.851562 C 244.589844 151.808594 244.4375 151.765625 244.28125 151.730469 C 243.679688 148.007812 240.578125 145.070312 236.667969 144.828125 C 232.140625 144.554688 228.242188 148.011719 227.96875 152.546875 C 227.902344 153.667969 228.0625 154.742188 228.402344 155.738281 C 228.179688 155.761719 227.941406 155.78125 227.699219 155.800781 C 226.003906 155.878906 224.402344 155.71875 222.777344 155.183594 C 219.136719 153.988281 214.835938 149.929688 216.152344 145.871094 C 217.152344 142.792969 219.117188 146.441406 221.472656 147.347656 C 229.304688 150.347656 234.601562 137.589844 225.277344 132.664062 C 223.902344 131.9375 222.488281 131.539062 221.097656 131.433594 C 220.945312 127.25 217.644531 123.785156 213.386719 123.53125 C 209.128906 123.269531 205.4375 126.308594 204.777344 130.441406 C 203.386719 130.378906 201.9375 130.601562 200.480469 131.15625 C 190.632812 134.917969 194.355469 148.226562 202.484375 146.191406 C 204.9375 145.578125 207.328125 142.195312 207.949219 145.371094 C 208.769531 149.558594 204.003906 153.070312 200.25 153.816406 C 194.921875 154.875 191.636719 152.757812 187.34375 150.066406 C 183.054688 152.757812 179.765625 154.875 174.4375 153.816406 C 170.683594 153.070312 165.921875 149.558594 166.738281 145.371094 C 167.359375 142.195312 169.753906 145.578125 172.203125 146.191406 C 180.335938 148.226562 184.054688 134.917969 174.210938 131.15625 C 172.75 130.601562 171.304688 130.378906 169.910156 130.441406 C 169.253906 126.308594 165.558594 123.269531 161.304688 123.53125 C 157.046875 123.785156 153.746094 127.25 153.589844 131.433594 C 152.199219 131.539062 150.789062 131.9375 149.410156 132.664062 C 140.089844 137.589844 145.386719 150.347656 153.214844 147.347656 C 155.574219 146.441406 157.539062 142.792969 158.539062 145.871094 C 159.855469 149.929688 155.550781 153.988281 151.914062 155.183594 C 150.285156 155.71875 148.6875 155.878906 146.988281 155.800781 C 146.742188 155.78125 146.511719 155.761719 146.285156 155.738281 C 146.628906 154.742188 146.785156 153.667969 146.71875 152.546875 C 146.445312 148.011719 142.550781 144.554688 138.023438 144.828125 C 134.109375 145.070312 131.007812 148.007812 130.410156 151.730469 C 130.253906 151.765625 130.101562 151.808594 129.949219 151.851562 C 129.324219 149.617188 128.4375 147.074219 128.574219 145.5 C 129.308594 145.746094 130.097656 145.851562 130.914062 145.789062 C 134.234375 145.542969 136.722656 142.648438 136.480469 139.320312 C 136.265625 136.449219 134.085938 134.195312 131.355469 133.792969 C 130.65625 130.996094 128.035156 129.023438 125.070312 129.246094 C 122.101562 129.464844 119.796875 131.800781 119.511719 134.671875 C 116.875 135.472656 115.046875 138.023438 115.257812 140.894531 C 115.507812 144.222656 118.394531 146.71875 121.714844 146.472656 C 122.53125 146.414062 123.296875 146.191406 123.984375 145.839844 C 124.359375 147.402344 123.835938 150.101562 123.546875 152.433594 C 123.371094 152.410156 123.191406 152.390625 123.007812 152.378906 C 121.820312 148.800781 118.28125 146.402344 114.386719 146.796875 C 109.871094 147.257812 106.585938 151.296875 107.042969 155.820312 C 107.15625 156.929688 107.484375 157.96875 107.984375 158.894531 C 107.765625 158.953125 107.535156 159.011719 107.296875 159.070312 C 105.632812 159.421875 104.03125 159.519531 102.335938 159.253906 C 98.554688 158.664062 93.65625 155.347656 94.304688 151.128906 C 94.796875 147.933594 97.324219 151.21875 99.796875 151.730469 C 108.003906 153.429688 111.183594 139.984375 101.191406 136.625 C 99.714844 136.128906 98.257812 135.964844 96.867188 136.082031 C 96.046875 131.980469 92.230469 129.09375 87.988281 129.527344 C 83.746094 129.960938 80.585938 133.550781 80.601562 137.738281 C 79.21875 137.902344 77.824219 138.351562 76.476562 139.136719 C 67.359375 144.4375 73.167969 156.96875 80.867188 153.652344 C 83.1875 152.652344 85.460938 148.796875 86.128906 151.960938 C 86.957031 155.867188 87.355469 159.894531 88.496094 163.871094 C 89.167969 163.519531 90.023438 163.238281 91.085938 163.089844 C 107.238281 160.796875 122.773438 159.203125 138.585938 158.171875 C 154.144531 157.15625 169.992188 156.691406 186.972656 156.652344 L 186.972656 156.648438 L 187.71875 156.648438 L 187.71875 156.652344 C 204.699219 156.691406 220.542969 157.15625 236.101562 158.171875 C 251.914062 159.203125 267.453125 160.796875 283.601562 163.089844 C 284.664062 163.238281 285.519531 163.519531 286.191406 163.871094 Z M 128.953125 169.609375 C 130.335938 169.609375 131.464844 170.734375 131.464844 172.125 C 131.464844 173.515625 130.335938 174.640625 128.953125 174.640625 C 127.566406 174.640625 126.441406 173.515625 126.441406 172.125 C 126.441406 170.734375 127.566406 169.609375 128.953125 169.609375 Z M 245.738281 169.609375 C 244.351562 169.609375 243.226562 170.734375 243.226562 172.125 C 243.226562 173.515625 244.351562 174.640625 245.738281 174.640625 C 247.125 174.640625 248.25 173.515625 248.25 172.125 C 248.25 170.734375 247.125 169.609375 245.738281 169.609375 Z M 206.449219 181.355469 C 205.0625 181.355469 203.941406 182.480469 203.941406 183.871094 C 203.941406 185.261719 205.0625 186.386719 206.449219 186.386719 C 207.835938 186.386719 208.960938 185.261719 208.960938 183.871094 C 208.960938 182.480469 207.835938 181.355469 206.449219 181.355469 Z M 207.121094 168.269531 C 205.730469 168.269531 204.609375 169.394531 204.609375 170.785156 C 204.609375 172.175781 205.730469 173.300781 207.121094 173.300781 C 208.507812 173.300781 209.632812 172.175781 209.632812 170.785156 C 209.632812 169.394531 208.507812 168.269531 207.121094 168.269531 Z M 244.957031 183.03125 C 243.566406 183.03125 242.441406 184.160156 242.441406 185.546875 C 242.441406 186.941406 243.566406 188.066406 244.957031 188.066406 C 246.34375 188.066406 247.46875 186.941406 247.46875 185.546875 C 247.46875 184.160156 246.34375 183.03125 244.957031 183.03125 Z M 168.238281 181.355469 C 169.628906 181.355469 170.75 182.480469 170.75 183.871094 C 170.75 185.261719 169.628906 186.386719 168.238281 186.386719 C 166.851562 186.386719 165.726562 185.261719 165.726562 183.871094 C 165.726562 182.480469 166.851562 181.355469 168.238281 181.355469 Z M 167.566406 168.269531 C 168.957031 168.269531 170.082031 169.394531 170.082031 170.785156 C 170.082031 172.175781 168.957031 173.300781 167.566406 173.300781 C 166.179688 173.300781 165.058594 172.175781 165.058594 170.785156 C 165.058594 169.394531 166.179688 168.269531 167.566406 168.269531 Z M 129.734375 183.03125 C 131.121094 183.03125 132.246094 184.160156 132.246094 185.546875 C 132.246094 186.941406 131.121094 188.066406 129.734375 188.066406 C 128.347656 188.066406 127.222656 186.941406 127.222656 185.546875 C 127.222656 184.160156 128.347656 183.03125 129.734375 183.03125 Z M 187.34375 173.195312 C 194.863281 173.195312 200.960938 174.898438 200.960938 177 C 200.960938 179.097656 194.863281 180.800781 187.34375 180.800781 C 179.824219 180.800781 173.726562 179.097656 173.726562 177 C 173.726562 174.898438 179.824219 173.195312 187.34375 173.195312 Z M 109.757812 177.445312 C 117.242188 176.710938 123.472656 177.808594 123.675781 179.898438 C 123.882812 181.988281 117.980469 184.277344 110.496094 185.011719 C 103.011719 185.75 96.777344 184.648438 96.574219 182.558594 C 96.371094 180.46875 102.273438 178.179688 109.757812 177.445312 Z M 264.933594 177.445312 C 257.449219 176.710938 251.214844 177.808594 251.011719 179.898438 C 250.808594 181.988281 256.707031 184.277344 264.191406 185.011719 C 271.675781 185.75 277.910156 184.648438 278.117188 182.558594 C 278.320312 180.46875 272.417969 178.179688 264.933594 177.445312 Z M 226.378906 174.746094 C 218.871094 174.328125 212.691406 175.691406 212.574219 177.789062 C 212.457031 179.882812 218.449219 181.921875 225.957031 182.34375 C 233.46875 182.757812 239.648438 181.394531 239.761719 179.296875 C 239.882812 177.203125 233.890625 175.164062 226.378906 174.746094 Z M 148.308594 174.746094 C 155.816406 174.328125 161.996094 175.691406 162.113281 177.789062 C 162.230469 179.882812 156.238281 181.921875 148.730469 182.34375 C 141.222656 182.757812 135.042969 181.394531 134.925781 179.296875 C 134.808594 177.203125 140.800781 175.164062 148.308594 174.746094 Z M 284.648438 171.46875 C 284.445312 172.203125 284.261719 172.9375 284.101562 173.667969 C 283.964844 173.648438 283.824219 173.636719 283.683594 173.636719 C 282.292969 173.636719 281.171875 174.765625 281.171875 176.15625 C 281.171875 177.421875 282.105469 178.46875 283.324219 178.644531 C 283.0625 181.355469 283.078125 184.066406 283.335938 186.777344 C 282.394531 187.144531 281.730469 188.058594 281.730469 189.128906 C 281.730469 190.460938 282.761719 191.546875 284.066406 191.636719 C 284.246094 192.515625 284.445312 193.398438 284.667969 194.277344 C 285.59375 195.046875 286.148438 195.921875 286.382812 196.792969 L 286.382812 196.796875 C 286.519531 197.316406 286.542969 197.835938 286.460938 198.335938 C 286.378906 198.835938 286.1875 199.3125 285.898438 199.742188 C 285.351562 200.5625 284.453125 201.203125 283.285156 201.519531 L 283.078125 201.574219 L 282.867188 201.542969 C 266.773438 199.261719 251.28125 197.664062 235.523438 196.636719 C 219.992188 195.625 204.21875 195.160156 187.359375 195.121094 L 187.328125 195.121094 C 170.46875 195.160156 154.695312 195.625 139.164062 196.636719 C 123.40625 197.664062 107.917969 199.261719 91.820312 201.542969 L 91.609375 201.574219 L 91.40625 201.519531 C 90.234375 201.203125 89.335938 200.5625 88.789062 199.742188 C 88.503906 199.3125 88.308594 198.835938 88.226562 198.335938 C 88.148438 197.835938 88.167969 197.316406 88.308594 196.796875 L 88.308594 196.792969 C 88.542969 195.910156 89.109375 195.019531 90.0625 194.242188 C 90.296875 193.371094 90.5 192.503906 90.675781 191.632812 C 91.957031 191.515625 92.957031 190.4375 92.957031 189.128906 C 92.957031 188.070312 92.308594 187.167969 91.386719 186.792969 C 91.625 184.078125 91.605469 181.363281 91.328125 178.648438 C 92.5625 178.488281 93.515625 177.433594 93.515625 176.15625 C 93.515625 174.765625 92.390625 173.636719 91.007812 173.636719 C 90.84375 173.636719 90.691406 173.652344 90.539062 173.679688 C 90.378906 172.941406 90.203125 172.203125 90.007812 171.464844 C 88.855469 171.332031 87.941406 170.871094 87.351562 170.25 C 86.957031 169.832031 86.691406 169.332031 86.597656 168.800781 C 86.496094 168.25 86.566406 167.683594 86.839844 167.140625 C 87.375 166.070312 88.726562 165.113281 91.085938 164.78125 C 107.238281 162.488281 122.773438 160.890625 138.585938 159.859375 C 154.144531 158.84375 169.992188 158.378906 186.972656 158.34375 L 187.71875 158.34375 C 204.699219 158.378906 220.542969 158.84375 236.105469 159.859375 C 251.914062 160.890625 267.453125 162.488281 283.601562 164.78125 C 285.964844 165.113281 287.3125 166.070312 287.851562 167.140625 C 288.121094 167.683594 288.195312 168.25 288.09375 168.800781 C 287.996094 169.332031 287.734375 169.832031 287.335938 170.25 C 286.742188 170.875 285.8125 171.339844 284.648438 171.46875 Z M 283.582031 196.125 C 219.425781 187.992188 155.265625 187.917969 91.109375 196.125 C 90.699219 196.527344 90.449219 196.941406 90.34375 197.339844 C 90.28125 197.566406 90.269531 197.789062 90.304688 197.996094 C 90.335938 198.199219 90.417969 198.394531 90.535156 198.570312 C 90.777344 198.9375 91.195312 199.238281 91.757812 199.421875 C 107.824219 197.152344 123.296875 195.5625 139.03125 194.53125 C 154.316406 193.539062 169.882812 193.070312 186.523438 193.019531 L 186.523438 193.011719 L 188.164062 193.011719 L 188.164062 193.019531 C 204.804688 193.070312 220.371094 193.539062 235.65625 194.53125 C 251.394531 195.5625 266.863281 197.152344 282.933594 199.421875 C 283.492188 199.238281 283.910156 198.9375 284.15625 198.570312 C 284.273438 198.394531 284.351562 198.199219 284.382812 197.996094 C 284.421875 197.789062 284.40625 197.566406 284.347656 197.339844 C 284.242188 196.941406 283.988281 196.527344 283.582031 196.125 Z M 283.582031 196.125 " fill-opacity="1" fill-rule="evenodd"/></g><g fill="#ffffff" fill-opacity="1"><g transform="translate(25.063104, 246.914849)"><g><path d="M 12.125 -11.0625 L 12.125 -3.171875 L 17.734375 -2.375 L 17.6875 0 L 1.546875 0 L 1.265625 -1.5 C 2.222656 -2.082031 3.476562 -2.703125 5.03125 -3.359375 L 5.03125 -27.90625 L 1.59375 -28.3125 L 1.640625 -30.703125 L 16.703125 -31.078125 C 20.304688 -31.078125 23.21875 -30.117188 25.4375 -28.203125 C 27.664062 -26.285156 28.78125 -23.867188 28.78125 -20.953125 C 28.78125 -18.179688 27.722656 -15.863281 25.609375 -14 C 23.492188 -12.132812 20.773438 -11.171875 17.453125 -11.109375 Z M 12.125 -26.734375 L 12.125 -15.203125 C 13.375 -14.960938 14.570312 -14.84375 15.71875 -14.84375 C 17.613281 -14.84375 19.046875 -15.4375 20.015625 -16.625 C 20.984375 -17.820312 21.46875 -19.296875 21.46875 -21.046875 C 21.46875 -22.378906 21.21875 -23.648438 20.71875 -24.859375 C 20.21875 -26.078125 19.515625 -26.9375 18.609375 -27.4375 Z M 12.125 -26.734375 "/></g></g></g><g fill="#ffffff" fill-opacity="1"><g transform="translate(54.554478, 246.914849)"><g><path d="M 16.5625 -2.375 L 16.515625 0 L 1.5 0 L 1.21875 -1.5 C 2.113281 -2.082031 3.429688 -2.71875 5.171875 -3.40625 L 5.171875 -27.8125 L 1.59375 -28.3125 L 1.640625 -30.703125 L 15.90625 -30.703125 L 16.1875 -29.203125 C 15.039062 -28.523438 13.734375 -27.890625 12.265625 -27.296875 L 12.265625 -2.984375 Z M 16.5625 -2.375 "/></g></g></g><g fill="#ffffff" fill-opacity="1"><g transform="translate(72.379959, 246.914849)"><g><path d="M 27.8125 -9.796875 C 27.65625 -7.054688 27.25 -3.789062 26.59375 0 L 3.359375 0.046875 L 3.40625 0 L 1.546875 -3.171875 L 19.125 -27.15625 L 8.71875 -26.5 L 7.28125 -20.625 L 3.359375 -20.625 C 3.015625 -22.457031 2.84375 -24.695312 2.84375 -27.34375 L 2.984375 -30.703125 L 25.9375 -30.703125 L 27.484375 -27.578125 L 10.265625 -4.109375 L 21.46875 -4.390625 L 23.609375 -10.40625 Z M 27.8125 -9.796875 "/></g></g></g><g fill="#ffffff" fill-opacity="1"><g transform="translate(101.871333, 246.914849)"><g><path d="M 27.8125 -9.796875 C 27.65625 -7.054688 27.25 -3.789062 26.59375 0 L 3.359375 0.046875 L 3.40625 0 L 1.546875 -3.171875 L 19.125 -27.15625 L 8.71875 -26.5 L 7.28125 -20.625 L 3.359375 -20.625 C 3.015625 -22.457031 2.84375 -24.695312 2.84375 -27.34375 L 2.984375 -30.703125 L 25.9375 -30.703125 L 27.484375 -27.578125 L 10.265625 -4.109375 L 21.46875 -4.390625 L 23.609375 -10.40625 Z M 27.8125 -9.796875 "/></g></g></g><g fill="#ffffff" fill-opacity="1"><g transform="translate(131.362707, 246.914849)"><g><path d="M 33.875 -2.375 L 33.828125 0 L 19.125 0 L 18.84375 -1.5 C 19.71875 -2.019531 21.070312 -2.671875 22.90625 -3.453125 L 20.953125 -8.484375 L 9.84375 -8.484375 L 7.796875 -2.984375 L 12.078125 -2.375 L 12.03125 0 L -0.65625 0 L -0.9375 -1.5 C 0 -2.082031 1.289062 -2.703125 2.9375 -3.359375 L 13.25 -28.6875 L 12.6875 -30.140625 L 18.796875 -31.8125 L 30.5625 -2.84375 Z M 19.59375 -12.03125 L 15.390625 -23.046875 L 11.203125 -12.03125 Z M 19.59375 -12.03125 "/></g></g></g><g fill="#ffffff" fill-opacity="1"><g transform="translate(164.913813, 246.914849)"><g/></g></g><g fill="#ffffff" fill-opacity="1"><g transform="translate(177.279663, 246.914849)"><g><path d="M 20.15625 -2.421875 L 19.96875 0 L 1.671875 0 L 1.40625 -1.546875 C 3.144531 -2.410156 5.273438 -3.1875 7.796875 -3.875 L 7.796875 -24.21875 L 2.234375 -21.875 L 0.703125 -24.59375 L 11.53125 -31.265625 L 14.5625 -29.25 L 14.5625 -3.3125 Z M 20.15625 -2.421875 "/></g></g></g><g fill="#ffffff" fill-opacity="1"><g transform="translate(197.718307, 246.914849)"><g/></g></g><g fill="#ffffff" fill-opacity="1"><g transform="translate(210.084157, 246.914849)"><g><path d="M 12.125 -11.0625 L 12.125 -3.171875 L 17.734375 -2.375 L 17.6875 0 L 1.546875 0 L 1.265625 -1.5 C 2.222656 -2.082031 3.476562 -2.703125 5.03125 -3.359375 L 5.03125 -27.90625 L 1.59375 -28.3125 L 1.640625 -30.703125 L 16.703125 -31.078125 C 20.304688 -31.078125 23.21875 -30.117188 25.4375 -28.203125 C 27.664062 -26.285156 28.78125 -23.867188 28.78125 -20.953125 C 28.78125 -18.179688 27.722656 -15.863281 25.609375 -14 C 23.492188 -12.132812 20.773438 -11.171875 17.453125 -11.109375 Z M 12.125 -26.734375 L 12.125 -15.203125 C 13.375 -14.960938 14.570312 -14.84375 15.71875 -14.84375 C 17.613281 -14.84375 19.046875 -15.4375 20.015625 -16.625 C 20.984375 -17.820312 21.46875 -19.296875 21.46875 -21.046875 C 21.46875 -22.378906 21.21875 -23.648438 20.71875 -24.859375 C 20.21875 -26.078125 19.515625 -26.9375 18.609375 -27.4375 Z M 12.125 -26.734375 "/></g></g></g><g fill="#ffffff" fill-opacity="1"><g transform="translate(239.575531, 246.914849)"><g><path d="M 16.5625 -2.375 L 16.515625 0 L 1.5 0 L 1.21875 -1.5 C 2.113281 -2.082031 3.429688 -2.71875 5.171875 -3.40625 L 5.171875 -27.8125 L 1.59375 -28.3125 L 1.640625 -30.703125 L 15.90625 -30.703125 L 16.1875 -29.203125 C 15.039062 -28.523438 13.734375 -27.890625 12.265625 -27.296875 L 12.265625 -2.984375 Z M 16.5625 -2.375 "/></g></g></g><g fill="#ffffff" fill-opacity="1"><g transform="translate(257.401012, 246.914849)"><g><path d="M 27.8125 -9.796875 C 27.65625 -7.054688 27.25 -3.789062 26.59375 0 L 3.359375 0.046875 L 3.40625 0 L 1.546875 -3.171875 L 19.125 -27.15625 L 8.71875 -26.5 L 7.28125 -20.625 L 3.359375 -20.625 C 3.015625 -22.457031 2.84375 -24.695312 2.84375 -27.34375 L 2.984375 -30.703125 L 25.9375 -30.703125 L 27.484375 -27.578125 L 10.265625 -4.109375 L 21.46875 -4.390625 L 23.609375 -10.40625 Z M 27.8125 -9.796875 "/></g></g></g><g fill="#ffffff" fill-opacity="1"><g transform="translate(286.892386, 246.914849)"><g><path d="M 27.8125 -9.796875 C 27.65625 -7.054688 27.25 -3.789062 26.59375 0 L 3.359375 0.046875 L 3.40625 0 L 1.546875 -3.171875 L 19.125 -27.15625 L 8.71875 -26.5 L 7.28125 -20.625 L 3.359375 -20.625 C 3.015625 -22.457031 2.84375 -24.695312 2.84375 -27.34375 L 2.984375 -30.703125 L 25.9375 -30.703125 L 27.484375 -27.578125 L 10.265625 -4.109375 L 21.46875 -4.390625 L 23.609375 -10.40625 Z M 27.8125 -9.796875 "/></g></g></g><g fill="#ffffff" fill-opacity="1"><g transform="translate(316.383744, 246.914849)"><g><path d="M 33.875 -2.375 L 33.828125 0 L 19.125 0 L 18.84375 -1.5 C 19.71875 -2.019531 21.070312 -2.671875 22.90625 -3.453125 L 20.953125 -8.484375 L 9.84375 -8.484375 L 7.796875 -2.984375 L 12.078125 -2.375 L 12.03125 0 L -0.65625 0 L -0.9375 -1.5 C 0 -2.082031 1.289062 -2.703125 2.9375 -3.359375 L 13.25 -28.6875 L 12.6875 -30.140625 L 18.796875 -31.8125 L 30.5625 -2.84375 Z M 19.59375 -12.03125 L 15.390625 -23.046875 L 11.203125 -12.03125 Z M 19.59375 -12.03125 "/></g></g></g><g fill="#ffffff" fill-opacity="1"><g transform="translate(156.951805, 268.980554)"><g><path d="M 4.355469 -0.34375 C 4.355469 -0.503906 4.226562 -0.59375 4.046875 -0.664062 L 3.527344 -0.820312 C 3.058594 -0.980469 2.808594 -1.179688 2.851562 -1.664062 L 3.542969 -9.632812 L 7.007812 -1.214844 C 7.207031 -0.738281 7.367188 -0.664062 7.636719 -0.664062 C 7.871094 -0.664062 8.035156 -0.753906 8.195312 -1.195312 L 11.578125 -9.699219 L 12.242188 -1.429688 C 12.269531 -1.078125 12.144531 -0.925781 11.675781 -0.820312 L 11.183594 -0.691406 C 10.910156 -0.621094 10.820312 -0.496094 10.820312 -0.332031 C 10.820312 -0.125 10.976562 0 11.289062 0 L 15.257812 0 C 15.5625 0 15.726562 -0.144531 15.726562 -0.34375 C 15.726562 -0.511719 15.625 -0.628906 15.382812 -0.691406 L 14.886719 -0.820312 C 14.492188 -0.910156 14.355469 -1.035156 14.332031 -1.4375 L 13.59375 -10.964844 C 13.558594 -11.496094 13.683594 -11.660156 14.125 -11.777344 L 14.636719 -11.902344 C 14.886719 -11.972656 14.996094 -12.089844 14.996094 -12.261719 C 14.996094 -12.46875 14.84375 -12.59375 14.527344 -12.59375 L 12.394531 -12.59375 C 11.945312 -12.59375 11.710938 -12.421875 11.53125 -11.945312 L 8.222656 -3.671875 L 4.804688 -11.992188 C 4.625 -12.46875 4.390625 -12.59375 3.957031 -12.59375 L 1.863281 -12.59375 C 1.546875 -12.59375 1.386719 -12.46875 1.386719 -12.253906 C 1.386719 -12.054688 1.492188 -11.945312 1.773438 -11.875 L 2.25 -11.777344 C 2.679688 -11.675781 2.851562 -11.425781 2.808594 -10.949219 L 1.996094 -1.671875 C 1.953125 -1.1875 1.734375 -0.960938 1.304688 -0.835938 L 0.871094 -0.703125 C 0.640625 -0.628906 0.484375 -0.53125 0.484375 -0.332031 C 0.484375 -0.125 0.640625 0 0.953125 0 L 3.886719 0 C 4.191406 0 4.355469 -0.136719 4.355469 -0.34375 Z M 4.355469 -0.34375 "/></g></g></g><g fill="#ffffff" fill-opacity="1"><g transform="translate(173.171326, 268.980554)"><g><path d="M 4.496094 -1.296875 L 4.496094 -11.296875 C 4.496094 -11.550781 4.652344 -11.710938 4.9375 -11.785156 L 5.53125 -11.890625 C 5.773438 -11.964844 5.875 -12.082031 5.875 -12.261719 C 5.875 -12.46875 5.738281 -12.59375 5.433594 -12.59375 L 1.457031 -12.59375 C 1.140625 -12.59375 1.007812 -12.46875 1.007812 -12.261719 C 1.007812 -12.082031 1.105469 -11.964844 1.359375 -11.890625 L 1.941406 -11.785156 C 2.230469 -11.710938 2.394531 -11.550781 2.394531 -11.296875 L 2.394531 -1.296875 C 2.394531 -1.042969 2.230469 -0.882812 1.941406 -0.808594 L 1.359375 -0.703125 C 1.105469 -0.628906 1.007812 -0.511719 1.007812 -0.332031 C 1.007812 -0.125 1.140625 0 1.457031 0 L 5.433594 0 C 5.738281 0 5.875 -0.125 5.875 -0.332031 C 5.875 -0.511719 5.773438 -0.628906 5.53125 -0.703125 L 4.9375 -0.808594 C 4.652344 -0.882812 4.496094 -1.042969 4.496094 -1.296875 Z M 4.496094 -1.296875 "/></g></g></g><g fill="#ffffff" fill-opacity="1"><g transform="translate(180.062145, 268.980554)"><g><path d="M 5.53125 -11.890625 C 5.773438 -11.964844 5.875 -12.082031 5.875 -12.261719 C 5.875 -12.46875 5.738281 -12.59375 5.433594 -12.59375 L 1.457031 -12.59375 C 1.140625 -12.59375 1.007812 -12.46875 1.007812 -12.261719 C 1.007812 -12.082031 1.105469 -11.964844 1.359375 -11.890625 L 1.941406 -11.785156 C 2.230469 -11.710938 2.394531 -11.550781 2.394531 -11.296875 L 2.394531 -1.296875 C 2.394531 -1.042969 2.230469 -0.882812 1.941406 -0.808594 L 1.359375 -0.703125 C 1.105469 -0.628906 1.007812 -0.511719 1.007812 -0.332031 C 1.007812 -0.125 1.140625 0 1.457031 0 L 8.113281 0 C 8.691406 0 8.914062 0.34375 9.273438 0.34375 C 9.570312 0.34375 9.722656 0.1875 9.824219 -0.179688 L 10.589844 -3.308594 C 10.660156 -3.589844 10.5625 -3.761719 10.316406 -3.804688 C 10.085938 -3.851562 9.921875 -3.769531 9.8125 -3.515625 L 9.3125 -2.3125 C 8.78125 -1.070312 8.292969 -0.738281 7.25 -0.738281 L 5.363281 -0.738281 C 4.769531 -0.738281 4.496094 -0.925781 4.496094 -1.375 L 4.496094 -11.296875 C 4.496094 -11.550781 4.652344 -11.710938 4.9375 -11.785156 Z M 5.53125 -11.890625 "/></g></g></g><g fill="#ffffff" fill-opacity="1"><g transform="translate(191.154024, 268.980554)"><g><path d="M 3.992188 -0.332031 C 3.992188 -0.503906 3.886719 -0.59375 3.644531 -0.664062 L 3.039062 -0.773438 C 2.484375 -0.960938 2.402344 -1.207031 2.617188 -1.871094 L 3.402344 -4.238281 L 8.195312 -4.238281 L 9.128906 -1.457031 C 9.273438 -1.007812 9.300781 -0.84375 8.996094 -0.773438 L 8.355469 -0.675781 C 8.113281 -0.601562 8.007812 -0.496094 8.007812 -0.332031 C 8.007812 -0.125 8.148438 0 8.464844 0 L 12.046875 0 C 12.359375 0 12.511719 -0.125 12.511719 -0.332031 C 12.511719 -0.511719 12.421875 -0.613281 12.089844 -0.71875 C 11.660156 -0.820312 11.480469 -1.035156 11.316406 -1.527344 L 7.980469 -11.363281 C 7.871094 -11.703125 7.90625 -11.820312 8.257812 -11.902344 C 8.574219 -11.980469 8.691406 -12.089844 8.691406 -12.277344 C 8.691406 -12.476562 8.546875 -12.59375 8.222656 -12.59375 L 4.488281 -12.59375 C 4.175781 -12.59375 4.019531 -12.476562 4.019531 -12.269531 C 4.019531 -12.097656 4.136719 -11.980469 4.472656 -11.890625 C 4.902344 -11.785156 4.9375 -11.640625 4.804688 -11.207031 L 1.636719 -1.773438 C 1.421875 -1.105469 1.3125 -0.9375 0.960938 -0.792969 L 0.621094 -0.675781 C 0.359375 -0.566406 0.289062 -0.476562 0.289062 -0.324219 C 0.289062 -0.125 0.433594 0 0.746094 0 L 3.535156 0 C 3.859375 0 3.992188 -0.125 3.992188 -0.332031 Z M 3.660156 -5.011719 L 5.800781 -11.425781 L 7.941406 -5.011719 Z M 3.660156 -5.011719 "/></g></g></g><g fill="#ffffff" fill-opacity="1"><g transform="translate(204.018094, 268.980554)"><g><path d="M 4.875 -0.332031 C 4.875 -0.503906 4.785156 -0.601562 4.523438 -0.703125 L 4.003906 -0.835938 C 3.417969 -1.027344 3.300781 -1.1875 3.300781 -1.664062 L 3.300781 -9.320312 L 9.761719 -0.980469 C 10.085938 -0.558594 10.109375 -0.476562 10.109375 -0.289062 C 10.109375 -0.0976562 10.226562 0 10.472656 0 L 12.296875 0 C 12.550781 0 12.683594 -0.125 12.683594 -0.296875 C 12.683594 -0.421875 12.65625 -0.523438 12.476562 -0.765625 L 11.917969 -1.464844 C 11.757812 -1.671875 11.703125 -1.890625 11.703125 -2.238281 L 11.703125 -10.929688 C 11.703125 -11.425781 11.839844 -11.585938 12.394531 -11.757812 L 12.925781 -11.890625 C 13.1875 -11.992188 13.269531 -12.089844 13.269531 -12.261719 C 13.269531 -12.46875 13.125 -12.59375 12.808594 -12.59375 L 9.742188 -12.59375 C 9.425781 -12.59375 9.273438 -12.46875 9.273438 -12.261719 C 9.273438 -12.089844 9.363281 -11.992188 9.625 -11.890625 L 10.148438 -11.757812 C 10.722656 -11.570312 10.839844 -11.40625 10.839844 -10.929688 L 10.839844 -2.933594 L 3.632812 -12.207031 C 3.402344 -12.503906 3.21875 -12.59375 2.914062 -12.59375 L 1.367188 -12.59375 C 1.160156 -12.59375 1.015625 -12.496094 1.015625 -12.324219 C 1.015625 -12.207031 1.0625 -12.117188 1.222656 -11.910156 L 2.015625 -10.957031 C 2.382812 -10.515625 2.445312 -10.34375 2.445312 -9.996094 L 2.445312 -1.664062 C 2.445312 -1.179688 2.3125 -1.015625 1.753906 -0.835938 L 1.222656 -0.703125 C 0.960938 -0.613281 0.871094 -0.503906 0.871094 -0.332031 C 0.871094 -0.125 1.027344 0 1.339844 0 L 4.40625 0 C 4.722656 0 4.875 -0.125 4.875 -0.332031 Z M 4.875 -0.332031 "/></g></g></g></svg>